HIERARCHY
ROOT Hips
{
	OFFSET 0.000000 0.000000 0.000000
	CHANNELS 6 Xposition Yposition Zposition Zrotation Xrotation Yrotation
	JOINT Spine
	{
		OFFSET 0.000000 -0.000000 0.081624
		CHANNELS 6 Xposition Yposition Zposition Zrotation Xrotation Yrotation
		JOINT Spine1
		{
			OFFSET 0.000000 -0.000000 0.223658
			CHANNELS 6 Xposition Yposition Zposition Zrotation Xrotation Yrotation
			JOINT Neck
			{
				OFFSET 0.000000 -0.000000 0.223658
				CHANNELS 6 Xposition Yposition Zposition Zrotation Xrotation Yrotation
				JOINT Head
				{
					OFFSET 0.000000 -0.000000 0.109496
					CHANNELS 6 Xposition Yposition Zposition Zrotation Xrotation Yrotation
					End Site
					{
						OFFSET 0.000000 -0.000000 0.248855
					}
				}
			}
			JOINT LeftShoulder
			{
				OFFSET 0.038712 0.001691 0.204072
				CHANNELS 6 Xposition Yposition Zposition Zrotation Xrotation Yrotation
				JOINT LeftArm
				{
					OFFSET 0.112670 0.000000 0.000000
					CHANNELS 6 Xposition Yposition Zposition Zrotation Xrotation Yrotation
					JOINT LeftForeArm
					{
						OFFSET 0.324399 0.000000 0.000000
						CHANNELS 6 Xposition Yposition Zposition Zrotation Xrotation Yrotation
						JOINT LeftHand
						{
							OFFSET 0.295418 0.000000 0.000000
							CHANNELS 6 Xposition Yposition Zposition Zrotation Xrotation Yrotation
							End Site
							{
								OFFSET 0.149313 0.000000 0.000000
							}
						}
					}
				}
			}
			JOINT RightShoulder
			{
				OFFSET -0.038825 0.001691 0.204072
				CHANNELS 6 Xposition Yposition Zposition Zrotation Xrotation Yrotation
				JOINT RightArm
				{
					OFFSET -0.112670 0.000000 0.000000
					CHANNELS 6 Xposition Yposition Zposition Zrotation Xrotation Yrotation
					JOINT RightForeArm
					{
						OFFSET -0.324399 0.000000 0.000000
						CHANNELS 6 Xposition Yposition Zposition Zrotation Xrotation Yrotation
						JOINT RightHand
						{
							OFFSET -0.295418 0.000000 0.000000
							CHANNELS 6 Xposition Yposition Zposition Zrotation Xrotation Yrotation
							End Site
							{
								OFFSET -0.149313 0.000000 0.000000
							}
						}
					}
				}
			}
		}
	}
	JOINT LeftUpLeg
	{
		OFFSET 0.099542 0.000000 0.000000
		CHANNELS 6 Xposition Yposition Zposition Zrotation Xrotation Yrotation
		JOINT LeftLeg
		{
			OFFSET 0.000000 0.000000 -0.482893
			CHANNELS 6 Xposition Yposition Zposition Zrotation Xrotation Yrotation
			JOINT LeftFoot
			{
				OFFSET 0.000000 0.000000 -0.449402
				CHANNELS 6 Xposition Yposition Zposition Zrotation Xrotation Yrotation
				JOINT LeftToeBase
				{
					OFFSET 0.000000 -0.149313 -0.064702
					CHANNELS 6 Xposition Yposition Zposition Zrotation Xrotation Yrotation
					End Site
					{
						OFFSET 0.000000 -0.039817 -0.000000
					}
				}
			}
		}
	}
	JOINT RightUpLeg
	{
		OFFSET -0.099542 0.000000 0.000000
		CHANNELS 6 Xposition Yposition Zposition Zrotation Xrotation Yrotation
		JOINT RightLeg
		{
			OFFSET 0.000000 0.000000 -0.482893
			CHANNELS 6 Xposition Yposition Zposition Zrotation Xrotation Yrotation
			JOINT RightFoot
			{
				OFFSET 0.000000 0.000000 -0.449402
				CHANNELS 6 Xposition Yposition Zposition Zrotation Xrotation Yrotation
				JOINT RightToeBase
				{
					OFFSET 0.000000 -0.149313 -0.064702
					CHANNELS 6 Xposition Yposition Zposition Zrotation Xrotation Yrotation
					End Site
					{
						OFFSET 0.000000 -0.039817 -0.000000
					}
				}
			}
		}
	}
}
MOTION
Frames: 9
Frame Time: 0.041667
0.545530 1.438876 0.939328 -6.794375 3.398806 -6.959419 -0.000000 -0.000000 0.081624 0.072774 -2.013597 4.140135 -0.000000 -0.000000 0.223658 10.112552 7.727911 1.189404 -0.000000 0.000000 0.223658 -0.140301 12.136201 1.321013 -0.000000 -0.000000 0.109496 -10.623494 -0.405476 -8.762106 0.038712 0.001691 0.204072 19.857773 16.370587 2.060326 0.112670 0.000000 0.000000 -40.065422 10.688628 76.666216 0.324399 0.000000 -0.000000 -10.955962 0.088594 -0.923100 0.295418 0.000000 -0.000000 0.408658 -2.167687 4.650449 -0.038825 0.001691 0.204072 20.950161 14.309717 -2.910382 -0.112670 0.000000 -0.000000 36.192073 2.111377 -53.222251 -0.324399 -0.000000 0.000000 25.364560 0.580847 2.581879 -0.295418 0.000000 0.000000 3.535840 -15.412638 3.117352 0.099542 -0.000000 0.000000 1.054021 -16.301129 1.800185 -0.000000 0.000000 -0.482893 7.319699 4.862057 2.816427 -0.000000 0.000000 -0.449402 16.673344 1.224553 2.494891 -0.000000 -0.149313 -0.064702 0.000001 -0.000000 0.000000 -0.099542 -0.000000 0.000000 0.611612 5.904377 8.999532 -0.000000 0.000000 -0.482893 4.456868 10.576780 -3.758512 -0.000000 0.000000 -0.449402 -10.938854 -20.857207 -2.130313 -0.000000 -0.149313 -0.064702 -0.000001 -0.000003 -0.000001 
0.545150 1.427465 0.936599 -7.526684 3.510768 -6.752066 -0.000000 -0.000000 0.081624 0.069122 -1.851227 4.277099 0.000000 0.000000 0.223658 10.270697 7.611892 1.292273 -0.000000 -0.000000 0.223658 -0.142690 12.045604 1.353449 -0.000000 -0.000000 0.109496 -10.054181 -0.863764 -8.753092 0.038712 0.001691 0.204072 20.039029 16.517153 2.120501 0.112670 -0.000000 -0.000000 -38.991532 10.666044 76.650131 0.324399 -0.000000 0.000000 -10.352584 0.033998 -0.374567 0.295418 -0.000000 0.000000 0.504270 -1.803380 4.930779 -0.038825 0.001691 0.204072 21.020660 14.108998 -2.715848 -0.112670 0.000000 -0.000000 36.032458 1.846081 -52.690316 -0.324399 0.000000 -0.000000 27.361179 0.808265 3.320735 -0.295418 0.000000 0.000000 3.265820 -15.799587 3.848987 0.099542 -0.000000 0.000000 0.556938 -16.799468 1.122623 -0.000000 0.000000 -0.482893 7.961381 3.200789 3.004432 0.000000 0.000000 -0.449402 16.389806 2.431217 2.819976 -0.000000 -0.149313 -0.064702 -0.000002 0.000000 0.000000 -0.099542 -0.000000 0.000000 0.323567 6.541847 9.078689 0.000000 0.000000 -0.482893 4.641244 10.165741 -3.792255 -0.000000 0.000000 -0.449402 -10.616263 -21.215590 -2.331682 0.000000 -0.149313 -0.064702 -0.000001 -0.000002 -0.000000 
0.544759 1.415563 0.933624 -8.258265 3.667952 -6.448107 -0.000000 -0.000000 0.081624 0.067509 -1.805281 4.283580 0.000000 0.000000 0.223658 10.373886 7.530958 1.500415 -0.000000 0.000000 0.223658 -0.146162 12.087604 1.381610 -0.000000 -0.000000 0.109496 -9.442376 -1.310169 -8.741812 0.038712 0.001691 0.204072 20.184758 16.587118 2.182397 0.112670 0.000000 0.000000 -38.241792 10.668899 76.610947 0.324399 -0.000000 -0.000000 -9.780044 -0.002311 0.027787 0.295418 -0.000000 0.000000 0.540336 -2.020123 5.140365 -0.038825 0.001691 0.204072 21.134016 13.879535 -2.531038 -0.112670 -0.000000 0.000000 35.962920 1.570589 -52.350241 -0.324399 0.000000 -0.000000 29.123363 1.097409 4.223895 -0.295418 0.000000 0.000000 3.071426 -16.302956 4.347797 0.099542 -0.000000 -0.000000 0.456635 -17.338063 0.467862 0.000000 -0.000000 -0.482893 8.245666 1.951869 3.117083 -0.000000 0.000000 -0.449402 16.288847 2.800395 2.816442 -0.000000 -0.149313 -0.064702 -0.000002 0.000003 -0.000001 -0.099542 -0.000000 -0.000000 0.060937 7.227844 9.110808 -0.000000 0.000000 -0.482893 4.781487 9.608543 -3.852835 -0.000000 0.000000 -0.449402 -10.177883 -21.525384 -2.588793 -0.000000 -0.149313 -0.064702 0.000002 -0.000002 -0.000000 
0.544501 1.402976 0.930438 -9.006884 3.859472 -6.096201 -0.000000 0.000000 0.081624 0.068435 -1.863971 4.205715 0.000000 -0.000000 0.223658 10.447858 7.474562 1.811800 0.000000 0.000000 0.223658 -0.153313 12.210460 1.434408 -0.000000 -0.000000 0.109496 -8.784298 -1.659780 -8.763253 0.038712 0.001691 0.204072 20.267348 16.597585 2.236697 0.112670 0.000000 0.000000 -37.795347 10.684485 76.560553 0.324399 -0.000000 -0.000000 -9.276357 -0.022312 0.275868 0.295418 -0.000000 0.000000 0.554616 -2.420833 5.400232 -0.038825 0.001691 0.204072 21.276459 13.652174 -2.371199 -0.112670 0.000000 0.000000 35.927744 1.226465 -52.140978 -0.324399 0.000000 -0.000000 30.623051 1.414484 5.164213 -0.295418 0.000000 0.000000 2.909459 -16.835030 4.572688 0.099542 0.000000 -0.000000 0.755042 -17.914835 -0.067070 -0.000000 0.000000 -0.482893 8.143268 1.153369 3.082183 -0.000000 0.000000 -0.449402 16.429491 2.333318 2.403017 0.000000 -0.149313 -0.064702 0.000000 0.000000 -0.000000 -0.099542 0.000000 -0.000000 -0.026783 7.984990 9.123222 -0.000000 0.000000 -0.482893 4.970188 8.966415 -3.909986 -0.000000 0.000000 -0.449402 -9.768491 -21.778354 -2.935905 0.000000 -0.149313 -0.064702 -0.000001 -0.000000 -0.000000 
0.544437 1.389701 0.927131 -9.764577 4.049374 -5.755146 -0.000000 0.000000 0.081624 0.070927 -1.972044 4.119807 -0.000000 -0.000000 0.223658 10.489554 7.419734 2.215743 0.000000 -0.000000 0.223658 -0.162581 12.353246 1.503349 0.000000 -0.000000 0.109496 -8.089123 -1.809460 -8.816054 0.038712 0.001691 0.204072 20.299911 16.548087 2.251017 0.112670 0.000000 -0.000000 -37.586138 10.677722 76.501254 0.324399 -0.000000 0.000000 -8.863871 -0.029657 0.383509 0.295418 -0.000000 0.000000 0.577193 -2.580930 5.692573 -0.038825 0.001691 0.204072 21.435997 13.456240 -2.248168 -0.112670 0.000000 0.000000 35.876050 0.788096 -52.029615 -0.324399 0.000000 0.000000 31.922293 1.727621 6.036245 -0.295418 -0.000000 -0.000000 2.583242 -17.339726 4.581281 0.099542 0.000000 -0.000000 1.318964 -18.513369 -0.478897 -0.000000 -0.000000 -0.482893 7.633228 0.902481 2.973237 -0.000000 -0.000000 -0.449402 16.892970 1.231422 1.821759 -0.000000 -0.149313 -0.064702 -0.000001 0.000001 -0.000000 -0.099542 0.000000 -0.000000 0.100202 8.785934 9.135192 -0.000000 0.000000 -0.482893 5.309624 8.410543 -3.888511 -0.000000 0.000000 -0.449402 -9.466658 -21.995256 -3.322700 -0.000000 -0.149313 -0.064702 0.000000 0.000001 -0.000000 
0.544581 1.375705 0.923805 -10.547911 4.184556 -5.471073 0.000000 -0.000000 0.081624 0.073001 -2.039847 4.099377 0.000000 0.000000 0.223658 10.516295 7.334249 2.700198 0.000000 -0.000000 0.223658 -0.170544 12.515510 1.556237 -0.000000 -0.000000 0.109496 -7.373375 -1.747714 -8.867808 0.038712 0.001691 0.204072 20.283174 16.429725 2.207253 0.112670 0.000000 0.000000 -37.542326 10.632585 76.426190 0.324399 0.000000 -0.000000 -8.569727 -0.028122 0.376236 0.295418 0.000000 -0.000000 0.654299 -2.358880 5.877438 -0.038825 0.001691 0.204072 21.606684 13.300525 -2.159665 -0.112670 -0.000000 0.000000 35.770582 0.258318 -52.013759 -0.324399 0.000000 -0.000000 33.100750 2.025008 6.807987 -0.295418 -0.000000 0.000000 1.991169 -17.898845 4.479180 0.099542 -0.000000 -0.000000 2.058584 -19.082859 -0.783944 -0.000000 0.000000 -0.482893 6.721579 1.267904 2.897021 -0.000000 0.000000 -0.449402 17.597069 -0.180739 1.399787 -0.000000 -0.149313 -0.064702 -0.000000 0.000001 -0.000000 -0.099542 -0.000000 -0.000000 0.364606 9.588497 9.185789 -0.000000 -0.000000 -0.482893 5.801608 8.124845 -3.747888 -0.000000 0.000000 -0.449402 -9.183060 -22.204552 -3.698458 -0.000000 -0.149313 -0.064702 0.000001 0.000000 -0.000000 
0.544886 1.361118 0.920643 -11.386356 4.178082 -5.261100 -0.000000 -0.000000 0.081624 0.071522 -1.956674 4.186726 0.000000 0.000000 0.223658 10.569940 7.202392 3.230815 0.000000 0.000000 0.223658 -0.171507 12.751753 1.535769 0.000000 -0.000000 0.109496 -6.664166 -1.571641 -8.836363 0.038712 0.001691 0.204072 20.191641 16.244574 2.137372 0.112670 0.000000 -0.000000 -37.609115 10.566664 76.289504 0.324399 0.000000 -0.000000 -8.435642 -0.022132 0.301001 0.295418 0.000000 -0.000000 0.798276 -1.936863 5.807036 -0.038825 0.001691 0.204072 21.784938 13.192170 -2.113130 -0.112670 0.000000 -0.000000 35.607695 -0.316489 -52.089208 -0.324399 -0.000000 0.000000 34.166751 2.305147 7.492004 -0.295418 0.000000 -0.000000 1.221371 -18.544488 4.293302 0.099542 -0.000000 -0.000000 2.901085 -19.486967 -1.000038 -0.000000 0.000000 -0.482893 5.480614 2.255008 2.912302 -0.000000 0.000000 -0.449402 18.323803 -1.617301 1.324178 -0.000000 -0.149313 -0.064702 -0.000001 0.000001 -0.000000 -0.099542 0.000000 0.000000 0.671598 10.393956 9.313194 0.000000 0.000000 -0.482893 6.302013 8.218485 -3.543910 -0.000000 0.000000 -0.449402 -8.758161 -22.386908 -4.111020 0.000000 -0.149313 -0.064702 -0.000001 0.000000 -0.000000 
0.545346 1.345852 0.917835 -12.300787 3.974729 -5.102915 -0.000000 -0.000000 0.081624 0.064693 -1.696438 4.367856 0.000000 -0.000000 0.223658 10.676591 7.069137 3.769603 0.000000 -0.000000 0.223658 -0.161028 13.099420 1.403404 -0.000000 -0.000000 0.109496 -5.960502 -1.379145 -8.647844 0.038712 0.001691 0.204072 20.019810 16.003027 2.103366 0.112670 0.000000 0.000000 -37.729466 10.477844 76.004317 0.324399 -0.000000 0.000000 -8.449513 -0.017396 0.236352 0.295418 -0.000000 -0.000000 0.932426 -1.585932 5.452100 -0.038825 0.001691 0.204072 21.974110 13.150445 -2.126658 -0.112670 0.000000 0.000000 35.417256 -0.880600 -52.221482 -0.324399 0.000000 -0.000000 35.095110 2.559928 8.084546 -0.295418 0.000000 0.000000 0.477001 -19.111639 4.114878 0.099542 0.000000 -0.000000 3.717957 -19.588465 -1.171258 -0.000000 0.000000 -0.482893 4.080843 3.791815 3.025407 0.000000 -0.000000 -0.449402 18.880014 -2.864169 1.532393 -0.000000 -0.149313 -0.064702 -0.000000 -0.000002 -0.000000 -0.099542 -0.000000 -0.000000 0.880410 11.218261 9.545999 0.000000 -0.000000 -0.482893 6.699196 8.690153 -3.365786 0.000000 0.000000 -0.449402 -8.067901 -22.460565 -4.672646 -0.000000 -0.149313 -0.064702 0.000001 0.000001 -0.000000 
0.546090 1.329637 0.915579 -13.264659 3.626657 -4.968588 -0.000000 -0.000000 0.081624 0.055622 -1.386928 4.593879 -0.000000 -0.000000 0.223658 10.806540 7.018937 4.300588 0.000000 -0.000000 0.223658 -0.141403 13.563875 1.190071 0.000000 0.000000 0.109496 -5.260073 -1.171490 -8.308190 0.038712 0.001691 0.204072 19.787693 15.705217 2.147000 0.112670 -0.000000 0.000000 -37.846847 10.312711 75.526176 0.324399 -0.000000 -0.000000 -8.499563 -0.015876 0.214456 0.295418 0.000000 0.000000 0.913526 -1.428388 4.849621 -0.038825 0.001691 0.204072 22.172862 13.194647 -2.209207 -0.112670 -0.000000 0.000000 35.259800 -1.392576 -52.374932 -0.324399 0.000000 0.000000 35.845260 2.775353 8.567745 -0.295418 0.000000 0.000000 -0.069433 -19.521328 4.110552 0.099542 -0.000000 -0.000000 4.295608 -19.377653 -1.339404 -0.000000 0.000000 -0.482893 2.784921 5.763208 3.216108 0.000000 -0.000000 -0.449402 19.206306 -3.792306 1.701088 0.000000 -0.149313 -0.064702 -0.000000 -0.000001 0.000000 -0.099542 -0.000000 -0.000000 0.873563 12.001719 9.903049 -0.000000 0.000000 -0.482893 6.990621 9.501891 -3.239763 -0.000000 0.000000 -0.449402 -7.070903 -22.301637 -5.422675 0.000000 -0.149313 -0.064702 -0.000001 0.000000 0.000000 
